<?xml version="1.0" encoding="UTF-8" standalone="no"?>
<!DOCTYPE svg PUBLIC "-//W3C//DTD SVG 1.1//EN" "http://www.w3.org/Graphics/SVG/1.1/DTD/svg11.dtd">
<svg xmlns="http://www.w3.org/2000/svg" version="1.1" viewBox="0.00 0.00 492.00 488.00">
<g stroke-width="2.00" fill="none" stroke-linecap="butt">
<path stroke="#a6d7a8" vector-effect="non-scaling-stroke" d="
  M 55.97 164.50
  C 55.94 160.95 56.84 160.62 60.14 160.67
  Q 68.80 160.79 77.22 161.00
  C 93.59 161.40 113.10 159.75 125.57 147.66
  Q 133.96 139.52 136.72 128.98
  C 140.77 113.49 139.98 98.10 139.69 81.74
  Q 139.64 78.77 142.61 78.72
  Q 160.63 78.46 175.91 78.33
  Q 222.92 77.90 274.31 77.31
  Q 282.97 77.20 283.70 77.24
  C 299.99 78.11 306.31 88.73 307.88 103.68
  Q 308.65 111.11 308.48 117.97
  Q 308.44 119.34 308.62 120.69
  C 309.00 123.56 308.08 126.60 311.81 127.72
  Q 319.60 130.04 328.16 132.44
  A 2.01 2.01 0.0 0 0 330.70 130.27
  Q 330.25 126.46 330.29 122.49
  Q 330.37 112.98 330.14 104.43
  C 329.38 76.78 313.35 57.29 284.98 55.15
  C 282.61 54.98 280.20 54.80 277.86 54.85
  Q 211.05 56.27 138.14 56.31
  Q 124.50 56.31 115.82 64.81
  Q 81.17 98.75 43.45 136.02
  C 38.10 141.31 34.27 146.10 33.64 153.24
  Q 33.31 157.02 33.49 167.96
  Q 33.61 175.27 33.67 182.69
  Q 34.41 277.34 35.89 373.63
  C 36.07 385.32 37.31 395.62 42.50 405.96
  C 52.15 425.20 73.36 431.45 93.50 430.99
  Q 189.88 428.83 280.50 428.66
  Q 290.53 428.64 301.15 425.25
  C 330.37 415.92 335.42 386.50 332.78 360.05
  C 332.57 357.95 331.19 355.92 328.74 356.95
  Q 321.84 359.88 315.02 362.75
  C 312.15 363.96 310.36 366.48 310.75 369.72
  C 312.54 384.27 309.34 400.38 293.30 404.85
  Q 288.91 406.07 285.49 406.19
  C 275.30 406.53 264.78 406.57 254.25 406.68
  Q 184.92 407.41 115.94 408.38
  Q 100.79 408.59 85.50 408.71
  C 74.09 408.81 64.29 403.89 60.55 392.58
  Q 58.56 386.56 58.51 381.47
  Q 57.63 288.68 56.33 198.10
  Q 56.09 181.45 55.97 164.50"
/>
<path stroke="#a6d7a8" vector-effect="non-scaling-stroke" d="
  M 184.17 168.01
  A 2.83 2.83 0.0 0 0 186.54 167.39
  L 208.25 148.95
  A 2.83 2.83 0.0 0 0 206.25 143.97
  L 166.86 146.30
  A 2.83 2.83 0.0 0 0 164.24 148.66
  L 162.18 160.94
  A 2.83 2.83 0.0 0 0 164.44 164.19
  L 184.17 168.01"
/>
<path stroke="#a6d7a8" vector-effect="non-scaling-stroke" d="
  M 340.19 327.85
  C 343.88 325.40 348.97 327.12 349.95 331.46
  Q 352.23 341.56 358.49 347.72
  Q 391.93 380.69 426.22 413.24
  C 430.72 417.51 435.10 420.18 441.47 419.45
  Q 445.90 418.93 451.12 416.04
  Q 454.76 414.02 456.72 410.18
  Q 461.63 400.54 457.64 392.22
  Q 455.77 388.31 447.92 380.61
  Q 415.44 348.75 382.09 315.94
  Q 380.19 314.07 377.46 314.04
  Q 368.89 313.91 364.18 306.85
  A 2.74 2.73 44.3 0 1 364.14 303.87
  C 387.41 267.03 389.93 221.20 362.95 185.70
  C 342.44 158.72 311.76 143.28 277.75 144.62
  C 253.55 145.57 229.92 155.89 212.54 172.17
  C 190.44 192.88 178.64 222.97 181.48 253.96
  C 185.71 300.24 220.78 338.06 266.83 344.67
  Q 306.31 350.33 340.19 327.85"
/>
<path stroke="#a6d7a8" vector-effect="non-scaling-stroke" d="
  M 170.10 197.13
  C 171.08 194.82 174.75 188.43 169.20 188.51
  Q 130.88 189.07 97.17 189.38
  Q 92.39 189.42 89.91 190.66
  C 85.19 193.01 78.70 198.07 82.72 203.81
  Q 85.18 207.32 91.24 210.46
  Q 93.37 211.57 96.49 211.51
  Q 123.20 211.01 157.25 210.66
  C 160.11 210.63 164.31 210.97 165.70 207.62
  Q 167.79 202.59 170.10 197.13"
/>
<path stroke="#a6d7a8" vector-effect="non-scaling-stroke" d="
  M 159.7857 238.3351
  A 6.15 6.15 0.0 0 0 153.5823 232.2390
  L 89.0847 232.8019
  A 6.15 6.15 0.0 0 0 82.9886 239.0053
  L 83.0743 248.8249
  A 6.15 6.15 0.0 0 0 89.2777 254.9210
  L 153.7753 254.3581
  A 6.15 6.15 0.0 0 0 159.8714 248.1547
  L 159.7857 238.3351"
/>
<path stroke="#a6d7a8" vector-effect="non-scaling-stroke" d="
  M 164.78 298.16
  A 5.22 5.22 0.0 0 0 169.54 290.76
  L 163.94 278.54
  A 5.22 5.22 0.0 0 0 159.09 275.50
  L 88.13 276.99
  A 5.22 5.22 0.0 0 0 83.07 282.91
  L 84.50 293.42
  A 5.22 5.22 0.0 0 0 89.65 297.93
  L 164.78 298.16"
/>
<path stroke="#a6d7a8" vector-effect="non-scaling-stroke" d="
  M 83.03 329.37
  C 81.70 334.97 87.48 341.21 92.93 341.38
  C 104.24 341.73 116.28 341.30 127.70 341.27
  Q 161.66 341.18 201.30 340.92
  A 0.72 0.72 0.0 0 0 201.84 339.74
  L 184.74 319.54
  A 2.61 2.57 -20.1 0 0 182.74 318.63
  Q 138.84 319.18 98.75 319.47
  C 90.59 319.53 85.12 320.56 83.03 329.37"
/>
<path stroke="#a6d7a8" vector-effect="non-scaling-stroke" d="
  M 251.6858 371.8493
  A 10.63 10.63 0.0 0 0 240.9084 361.3687
  L 93.0428 363.4334
  A 10.63 10.63 0.0 0 0 82.5622 374.2108
  L 82.5742 375.0707
  A 10.63 10.63 0.0 0 0 93.3516 385.5513
  L 241.2172 383.4866
  A 10.63 10.63 0.0 0 0 251.6978 372.7092
  L 251.6858 371.8493"
/>
<path stroke="#a6d7a8" vector-effect="non-scaling-stroke" d="
  M 356.05 245.37
  A 74.19 74.19 0.0 0 0 281.86 171.18
  A 74.19 74.19 0.0 0 0 207.67 245.37
  A 74.19 74.19 0.0 0 0 281.86 319.56
  A 74.19 74.19 0.0 0 0 356.05 245.37"
/>
<path stroke="#a6d7a8" vector-effect="non-scaling-stroke" d="
  M 249.19 230.09
  C 255.53 216.27 268.90 209.99 283.53 206.96
  C 287.87 206.06 291.39 203.42 291.43 198.63
  C 291.54 184.96 272.35 188.12 264.09 191.24
  C 243.70 198.95 228.88 214.63 225.76 236.72
  C 224.66 244.56 223.74 251.55 231.98 256.12
  C 236.19 258.44 241.74 253.42 243.54 250.15
  Q 245.15 247.23 245.61 242.88
  Q 246.29 236.43 249.19 230.09"
/>
</g>
<path fill="#ffffff" d="
  M 0.00 0.00
  L 492.00 0.00
  L 492.00 488.00
  L 0.00 488.00
  L 0.00 0.00
  Z
  M 55.97 164.50
  C 55.94 160.95 56.84 160.62 60.14 160.67
  Q 68.80 160.79 77.22 161.00
  C 93.59 161.40 113.10 159.75 125.57 147.66
  Q 133.96 139.52 136.72 128.98
  C 140.77 113.49 139.98 98.10 139.69 81.74
  Q 139.64 78.77 142.61 78.72
  Q 160.63 78.46 175.91 78.33
  Q 222.92 77.90 274.31 77.31
  Q 282.97 77.20 283.70 77.24
  C 299.99 78.11 306.31 88.73 307.88 103.68
  Q 308.65 111.11 308.48 117.97
  Q 308.44 119.34 308.62 120.69
  C 309.00 123.56 308.08 126.60 311.81 127.72
  Q 319.60 130.04 328.16 132.44
  A 2.01 2.01 0.0 0 0 330.70 130.27
  Q 330.25 126.46 330.29 122.49
  Q 330.37 112.98 330.14 104.43
  C 329.38 76.78 313.35 57.29 284.98 55.15
  C 282.61 54.98 280.20 54.80 277.86 54.85
  Q 211.05 56.27 138.14 56.31
  Q 124.50 56.31 115.82 64.81
  Q 81.17 98.75 43.45 136.02
  C 38.10 141.31 34.27 146.10 33.64 153.24
  Q 33.31 157.02 33.49 167.96
  Q 33.61 175.27 33.67 182.69
  Q 34.41 277.34 35.89 373.63
  C 36.07 385.32 37.31 395.62 42.50 405.96
  C 52.15 425.20 73.36 431.45 93.50 430.99
  Q 189.88 428.83 280.50 428.66
  Q 290.53 428.64 301.15 425.25
  C 330.37 415.92 335.42 386.50 332.78 360.05
  C 332.57 357.95 331.19 355.92 328.74 356.95
  Q 321.84 359.88 315.02 362.75
  C 312.15 363.96 310.36 366.48 310.75 369.72
  C 312.54 384.27 309.34 400.38 293.30 404.85
  Q 288.91 406.07 285.49 406.19
  C 275.30 406.53 264.78 406.57 254.25 406.68
  Q 184.92 407.41 115.94 408.38
  Q 100.79 408.59 85.50 408.71
  C 74.09 408.81 64.29 403.89 60.55 392.58
  Q 58.56 386.56 58.51 381.47
  Q 57.63 288.68 56.33 198.10
  Q 56.09 181.45 55.97 164.50
  Z
  M 184.17 168.01
  A 2.83 2.83 0.0 0 0 186.54 167.39
  L 208.25 148.95
  A 2.83 2.83 0.0 0 0 206.25 143.97
  L 166.86 146.30
  A 2.83 2.83 0.0 0 0 164.24 148.66
  L 162.18 160.94
  A 2.83 2.83 0.0 0 0 164.44 164.19
  L 184.17 168.01
  Z
  M 340.19 327.85
  C 343.88 325.40 348.97 327.12 349.95 331.46
  Q 352.23 341.56 358.49 347.72
  Q 391.93 380.69 426.22 413.24
  C 430.72 417.51 435.10 420.18 441.47 419.45
  Q 445.90 418.93 451.12 416.04
  Q 454.76 414.02 456.72 410.18
  Q 461.63 400.54 457.64 392.22
  Q 455.77 388.31 447.92 380.61
  Q 415.44 348.75 382.09 315.94
  Q 380.19 314.07 377.46 314.04
  Q 368.89 313.91 364.18 306.85
  A 2.74 2.73 44.3 0 1 364.14 303.87
  C 387.41 267.03 389.93 221.20 362.95 185.70
  C 342.44 158.72 311.76 143.28 277.75 144.62
  C 253.55 145.57 229.92 155.89 212.54 172.17
  C 190.44 192.88 178.64 222.97 181.48 253.96
  C 185.71 300.24 220.78 338.06 266.83 344.67
  Q 306.31 350.33 340.19 327.85
  Z
  M 170.10 197.13
  C 171.08 194.82 174.75 188.43 169.20 188.51
  Q 130.88 189.07 97.17 189.38
  Q 92.39 189.42 89.91 190.66
  C 85.19 193.01 78.70 198.07 82.72 203.81
  Q 85.18 207.32 91.24 210.46
  Q 93.37 211.57 96.49 211.51
  Q 123.20 211.01 157.25 210.66
  C 160.11 210.63 164.31 210.97 165.70 207.62
  Q 167.79 202.59 170.10 197.13
  Z
  M 159.7857 238.3351
  A 6.15 6.15 0.0 0 0 153.5823 232.2390
  L 89.0847 232.8019
  A 6.15 6.15 0.0 0 0 82.9886 239.0053
  L 83.0743 248.8249
  A 6.15 6.15 0.0 0 0 89.2777 254.9210
  L 153.7753 254.3581
  A 6.15 6.15 0.0 0 0 159.8714 248.1547
  L 159.7857 238.3351
  Z
  M 164.78 298.16
  A 5.22 5.22 0.0 0 0 169.54 290.76
  L 163.94 278.54
  A 5.22 5.22 0.0 0 0 159.09 275.50
  L 88.13 276.99
  A 5.22 5.22 0.0 0 0 83.07 282.91
  L 84.50 293.42
  A 5.22 5.22 0.0 0 0 89.65 297.93
  L 164.78 298.16
  Z
  M 83.03 329.37
  C 81.70 334.97 87.48 341.21 92.93 341.38
  C 104.24 341.73 116.28 341.30 127.70 341.27
  Q 161.66 341.18 201.30 340.92
  A 0.72 0.72 0.0 0 0 201.84 339.74
  L 184.74 319.54
  A 2.61 2.57 -20.1 0 0 182.74 318.63
  Q 138.84 319.18 98.75 319.47
  C 90.59 319.53 85.12 320.56 83.03 329.37
  Z
  M 251.6858 371.8493
  A 10.63 10.63 0.0 0 0 240.9084 361.3687
  L 93.0428 363.4334
  A 10.63 10.63 0.0 0 0 82.5622 374.2108
  L 82.5742 375.0707
  A 10.63 10.63 0.0 0 0 93.3516 385.5513
  L 241.2172 383.4866
  A 10.63 10.63 0.0 0 0 251.6978 372.7092
  L 251.6858 371.8493
  Z"
/>
<path fill="#4dae50" d="
  M 60.14 160.67
  C 56.84 160.62 55.94 160.95 55.97 164.50
  Q 56.09 181.45 56.33 198.10
  Q 57.63 288.68 58.51 381.47
  Q 58.56 386.56 60.55 392.58
  C 64.29 403.89 74.09 408.81 85.50 408.71
  Q 100.79 408.59 115.94 408.38
  Q 184.92 407.41 254.25 406.68
  C 264.78 406.57 275.30 406.53 285.49 406.19
  Q 288.91 406.07 293.30 404.85
  C 309.34 400.38 312.54 384.27 310.75 369.72
  C 310.36 366.48 312.15 363.96 315.02 362.75
  Q 321.84 359.88 328.74 356.95
  C 331.19 355.92 332.57 357.95 332.78 360.05
  C 335.42 386.50 330.37 415.92 301.15 425.25
  Q 290.53 428.64 280.50 428.66
  Q 189.88 428.83 93.50 430.99
  C 73.36 431.45 52.15 425.20 42.50 405.96
  C 37.31 395.62 36.07 385.32 35.89 373.63
  Q 34.41 277.34 33.67 182.69
  Q 33.61 175.27 33.49 167.96
  Q 33.31 157.02 33.64 153.24
  C 34.27 146.10 38.10 141.31 43.45 136.02
  Q 81.17 98.75 115.82 64.81
  Q 124.50 56.31 138.14 56.31
  Q 211.05 56.27 277.86 54.85
  C 280.20 54.80 282.61 54.98 284.98 55.15
  C 313.35 57.29 329.38 76.78 330.14 104.43
  Q 330.37 112.98 330.29 122.49
  Q 330.25 126.46 330.70 130.27
  A 2.01 2.01 0.0 0 1 328.16 132.44
  Q 319.60 130.04 311.81 127.72
  C 308.08 126.60 309.00 123.56 308.62 120.69
  Q 308.44 119.34 308.48 117.97
  Q 308.65 111.11 307.88 103.68
  C 306.31 88.73 299.99 78.11 283.70 77.24
  Q 282.97 77.20 274.31 77.31
  Q 222.92 77.90 175.91 78.33
  Q 160.63 78.46 142.61 78.72
  Q 139.64 78.77 139.69 81.74
  C 139.98 98.10 140.77 113.49 136.72 128.98
  Q 133.96 139.52 125.57 147.66
  C 113.10 159.75 93.59 161.40 77.22 161.00
  Q 68.80 160.79 60.14 160.67
  Z"
/>
<path fill="#4dae50" d="
  M 184.17 168.01
  L 164.44 164.19
  A 2.83 2.83 0.0 0 1 162.18 160.94
  L 164.24 148.66
  A 2.83 2.83 0.0 0 1 166.86 146.30
  L 206.25 143.97
  A 2.83 2.83 0.0 0 1 208.25 148.95
  L 186.54 167.39
  A 2.83 2.83 0.0 0 1 184.17 168.01
  Z"
/>
<path fill="#4dae50" d="
  M 349.95 331.46
  C 348.97 327.12 343.88 325.40 340.19 327.85
  Q 306.31 350.33 266.83 344.67
  C 220.78 338.06 185.71 300.24 181.48 253.96
  C 178.64 222.97 190.44 192.88 212.54 172.17
  C 229.92 155.89 253.55 145.57 277.75 144.62
  C 311.76 143.28 342.44 158.72 362.95 185.70
  C 389.93 221.20 387.41 267.03 364.14 303.87
  A 2.74 2.73 44.3 0 0 364.18 306.85
  Q 368.89 313.91 377.46 314.04
  Q 380.19 314.07 382.09 315.94
  Q 415.44 348.75 447.92 380.61
  Q 455.77 388.31 457.64 392.22
  Q 461.63 400.54 456.72 410.18
  Q 454.76 414.02 451.12 416.04
  Q 445.90 418.93 441.47 419.45
  C 435.10 420.18 430.72 417.51 426.22 413.24
  Q 391.93 380.69 358.49 347.72
  Q 352.23 341.56 349.95 331.46
  Z
  M 356.05 245.37
  A 74.19 74.19 0.0 0 0 281.86 171.18
  A 74.19 74.19 0.0 0 0 207.67 245.37
  A 74.19 74.19 0.0 0 0 281.86 319.56
  A 74.19 74.19 0.0 0 0 356.05 245.37
  Z"
/>
<path fill="#ffffff" d="
  M 356.05 245.37
  A 74.19 74.19 0.0 0 1 281.86 319.56
  A 74.19 74.19 0.0 0 1 207.67 245.37
  A 74.19 74.19 0.0 0 1 281.86 171.18
  A 74.19 74.19 0.0 0 1 356.05 245.37
  Z
  M 249.19 230.09
  C 255.53 216.27 268.90 209.99 283.53 206.96
  C 287.87 206.06 291.39 203.42 291.43 198.63
  C 291.54 184.96 272.35 188.12 264.09 191.24
  C 243.70 198.95 228.88 214.63 225.76 236.72
  C 224.66 244.56 223.74 251.55 231.98 256.12
  C 236.19 258.44 241.74 253.42 243.54 250.15
  Q 245.15 247.23 245.61 242.88
  Q 246.29 236.43 249.19 230.09
  Z"
/>
<path fill="#4dae50" d="
  M 170.10 197.13
  Q 167.79 202.59 165.70 207.62
  C 164.31 210.97 160.11 210.63 157.25 210.66
  Q 123.20 211.01 96.49 211.51
  Q 93.37 211.57 91.24 210.46
  Q 85.18 207.32 82.72 203.81
  C 78.70 198.07 85.19 193.01 89.91 190.66
  Q 92.39 189.42 97.17 189.38
  Q 130.88 189.07 169.20 188.51
  C 174.75 188.43 171.08 194.82 170.10 197.13
  Z"
/>
<path fill="#4dae50" d="
  M 249.19 230.09
  Q 246.29 236.43 245.61 242.88
  Q 245.15 247.23 243.54 250.15
  C 241.74 253.42 236.19 258.44 231.98 256.12
  C 223.74 251.55 224.66 244.56 225.76 236.72
  C 228.88 214.63 243.70 198.95 264.09 191.24
  C 272.35 188.12 291.54 184.96 291.43 198.63
  C 291.39 203.42 287.87 206.06 283.53 206.96
  C 268.90 209.99 255.53 216.27 249.19 230.09
  Z"
/>
<rect fill="#4dae50" x="-38.40" y="-11.06" transform="translate(121.43,243.58) rotate(-0.5)" width="76.80" height="22.12" rx="6.15"/>
<path fill="#4dae50" d="
  M 164.78 298.16
  L 89.65 297.93
  A 5.22 5.22 0.0 0 1 84.50 293.42
  L 83.07 282.91
  A 5.22 5.22 0.0 0 1 88.13 276.99
  L 159.09 275.50
  A 5.22 5.22 0.0 0 1 163.94 278.54
  L 169.54 290.76
  A 5.22 5.22 0.0 0 1 164.78 298.16
  Z"
/>
<path fill="#4dae50" d="
  M 92.93 341.38
  C 87.48 341.21 81.70 334.97 83.03 329.37
  C 85.12 320.56 90.59 319.53 98.75 319.47
  Q 138.84 319.18 182.74 318.63
  A 2.61 2.57 -20.1 0 1 184.74 319.54
  L 201.84 339.74
  A 0.72 0.72 0.0 0 1 201.30 340.92
  Q 161.66 341.18 127.70 341.27
  C 116.28 341.30 104.24 341.73 92.93 341.38
  Z"
/>
<rect fill="#4dae50" x="-84.57" y="-11.06" transform="translate(167.13,373.46) rotate(-0.8)" width="169.14" height="22.12" rx="10.63"/>
</svg>
