<?xml version="1.0" encoding="UTF-8" standalone="no"?>
<!DOCTYPE svg PUBLIC "-//W3C//DTD SVG 1.1//EN" "http://www.w3.org/Graphics/SVG/1.1/DTD/svg11.dtd">
<svg xmlns="http://www.w3.org/2000/svg" version="1.1" viewBox="0.00 0.00 512.00 512.00">
<path fill="#000000" d="
  M 48.47 0.00
  L 187.54 0.00
  Q 207.18 1.48 220.73 15.02
  Q 235.95 30.21 235.87 53.01
  Q 235.64 114.31 235.87 178.36
  Q 235.92 190.64 234.36 196.82
  Q 230.91 210.49 221.07 220.39
  Q 205.72 235.83 184.01 235.81
  Q 120.87 235.73 56.94 235.85
  Q 45.34 235.88 39.06 234.35
  Q 25.07 230.94 14.76 220.48
  Q 1.41 206.93 0.00 187.42
  L 0.00 48.18
  Q 1.59 28.52 14.71 15.22
  Q 28.25 1.50 48.47 0.00
  Z"
/>
<path fill="#000000" d="
  M 324.54 0.00
  L 463.65 0.00
  Q 489.10 2.17 503.24 22.50
  Q 511.00 33.66 512.00 48.50
  L 512.00 187.56
  C 510.59 207.01 499.06 223.35 481.49 231.42
  Q 471.97 235.80 460.65 235.80
  Q 393.50 235.78 328.40 235.81
  Q 306.00 235.82 290.80 220.26
  Q 280.96 210.18 277.65 196.77
  Q 276.08 190.41 276.11 178.17
  Q 276.30 114.98 276.15 51.86
  Q 276.12 40.89 280.02 31.79
  C 281.74 27.76 284.32 23.20 287.17 19.65
  Q 301.38 1.95 324.54 0.00
  Z"
/>
<path fill="#000000" d="
  M 187.44 512.00
  L 48.19 512.00
  Q 22.73 509.72 8.66 489.34
  Q 0.99 478.23 0.00 463.49
  L 0.00 324.41
  Q 1.47 305.10 14.64 291.64
  Q 29.79 276.16 52.30 276.19
  Q 117.06 276.25 183.51 276.18
  Q 205.86 276.16 221.01 291.49
  Q 235.81 306.45 235.80 328.28
  Q 235.78 393.38 235.80 460.56
  Q 235.80 471.22 232.07 479.98
  C 230.35 484.00 227.97 488.33 225.26 491.80
  Q 211.01 510.01 187.44 512.00
  Z"
/>
<path fill="#000000" d="
  M 512.00 324.55
  L 512.00 463.82
  Q 509.72 489.27 489.33 503.34
  Q 478.29 510.96 463.65 512.00
  L 324.44 512.00
  Q 305.02 510.51 291.52 497.23
  Q 281.06 486.95 277.65 472.95
  Q 276.13 466.69 276.15 455.11
  Q 276.24 391.20 276.17 328.57
  Q 276.15 306.15 291.50 291.00
  Q 306.33 276.37 327.75 276.33
  Q 392.20 276.22 460.50 276.17
  C 471.77 276.16 482.90 279.76 491.80 286.72
  Q 510.02 300.97 512.00 324.55
  Z"
/>
</svg>
